<?xml version="1.0" encoding="UTF-8" standalone="no"?>
<!-- Created with Inkscape (http://www.inkscape.org/) -->

<svg
   xmlns:dc="http://purl.org/dc/elements/1.1/"
   xmlns:cc="http://creativecommons.org/ns#"
   xmlns:rdf="http://www.w3.org/1999/02/22-rdf-syntax-ns#"
   xmlns:svg="http://www.w3.org/2000/svg"
   xmlns="http://www.w3.org/2000/svg"
   xmlns:sodipodi="http://sodipodi.sourceforge.net/DTD/sodipodi-0.dtd"
   xmlns:inkscape="http://www.inkscape.org/namespaces/inkscape"
   width="744.09448819"
   height="1052.3622047"
   id="svg2"
   version="1.1"
   inkscape:version="0.48.4 r9939"
   sodipodi:docname="IconForRestaurantSite.svg"
   inkscape:export-filename="/home/jamiroval/Documents/Alessandra/IconForRestaurantSite_512.png"
   inkscape:export-xdpi="76.669998"
   inkscape:export-ydpi="76.669998">
  <defs
     id="defs4" />
  <sodipodi:namedview
     id="base"
     pagecolor="#ffffff"
     bordercolor="#666666"
     borderopacity="1.0"
     inkscape:pageopacity="0.0"
     inkscape:pageshadow="2"
     inkscape:zoom="0.49497475"
     inkscape:cx="475.06877"
     inkscape:cy="577.81307"
     inkscape:document-units="px"
     inkscape:current-layer="layer1"
     showgrid="false"
     inkscape:window-width="1280"
     inkscape:window-height="970"
     inkscape:window-x="0"
     inkscape:window-y="0"
     inkscape:window-maximized="1" />
  <metadata
     id="metadata7">
    <rdf:RDF>
      <cc:Work
         rdf:about="">
        <dc:format>image/svg+xml</dc:format>
        <dc:type
           rdf:resource="http://purl.org/dc/dcmitype/StillImage" />
        <dc:title></dc:title>
      </cc:Work>
    </rdf:RDF>
  </metadata>
  <g
     inkscape:label="Layer 1"
     inkscape:groupmode="layer"
     id="layer1">
    <rect
       style="fill:#000000;fill-rule:evenodd;stroke:#ffa500;stroke-width:1px;stroke-linecap:butt;stroke-linejoin:miter;stroke-opacity:1;fill-opacity:1"
       id="rect2985"
       width="600"
       height="600"
       x="21.428572"
       y="20.933611" />
    <path
       style="font-size:medium;font-style:normal;font-variant:normal;font-weight:normal;font-stretch:normal;text-indent:0;text-align:start;text-decoration:none;line-height:normal;letter-spacing:normal;word-spacing:normal;text-transform:none;direction:ltr;block-progression:tb;writing-mode:lr-tb;text-anchor:start;baseline-shift:baseline;color:#000000;fill:#ffa500;fill-opacity:1;stroke:none;stroke-width:1;marker:none;visibility:visible;display:inline;overflow:visible;enable-background:accumulate;font-family:Sans;-inkscape-font-specification:Sans"
       d="m 295.85865,36.782043 c -11.13967,-0.283794 -22.44809,1.203098 -34.125,5.59375 l -0.0312,0 -0.0312,0 c -12.36792,5.985189 -21.70777,13.427734 -27.84385,23.21875 -6.06141,9.671864 -8.96047,21.658824 -8.5625,36.718757 -10.51565,-0.89658 -22.41716,2.81405 -35.59375,10.6875 -0.008,0.005 -0.0229,-0.005 -0.0312,0 -15.93598,9.17128 -28.7632,23.62362 -36.3125,35.875 -13.30722,22.00267 -14.63729,39.48509 -8.84375,55.125 l 0,0.0312 c 7.33621,16.9192 22.42427,26.78269 40.15625,34.09375 0.009,0.004 0.0223,-0.004 0.0312,0 18.54034,8.83708 36.6352,11.46225 55.09375,13.78125 l -4.40625,82.71875 0,0.34375 0.3125,0.125 c 11.27127,4.82287 22.58462,10.06006 33.96875,11.65625 18.58623,3.22493 38.14685,2.74218 56.21875,-0.75 20.22579,-3.44488 38.51718,-9.49581 53.5,-11.09375 l 0.0312,-0.0312 0.0312,0 c 11.25756,-2.25704 23.44354,-2.85175 38.75,-1.75 l 0.5,0.0312 0.0312,-0.5 c 0.42195,-9.41425 0.8886,-18.43836 0,-40.96875 -2.25171,-26.84072 -3.38547,-37.85997 -5.03125,-56.21875 9.77463,-3.733 20.57338,-10.12566 33.59375,-19.09375 l 0.0312,-0.0312 c 19.12016,-15.30737 35.24211,-32.9725 47.625,-55.71875 l 0,-0.0312 0.0312,-0.0312 c 11.35486,-31.79012 6.57606,-48.84259 -0.0312,-64.000003 -6.3048,-14.143225 -19.77938,-23.171392 -40.25,-27.062504 l -0.0312,0 c -25.28064,-4.363674 -45.47798,6.084871 -64.0311,20.937404 -9.57882,-24.073786 -31.6028,-39.320351 -61.65625,-48.718754 l -0.0312,0 c -10.96358,-2.612099 -21.92283,-4.653706 -33.0625,-4.9375 z m -0.0312,1 c 11.01422,0.282122 21.90136,2.308741 32.8125,4.90625 30.14971,9.428506 52.00644,24.613279 61.3125,48.687504 l 0.25,0.65625 0.53125,-0.4375 c 18.59141,-14.984191 38.59957,-25.466077 63.75,-21.125004 20.2722,3.853394 33.37751,12.695664 39.53125,26.500004 6.5639,15.057833 11.25556,31.631523 0,63.187503 -0.008,0.0233 -0.0229,0.0392 -0.0312,0.0625 -12.30078,22.57381 -28.27274,40.08877 -47.28125,55.3125 -0.0115,0.009 -0.0197,0.022 -0.0312,0.0312 -13.12226,9.03614 -23.96516,15.46448 -33.6875,19.125 l -0.375,0.125 0.0312,0.375 c 1.66432,18.58583 2.79618,29.54772 5.0625,56.5625 0.87331,22.14281 0.4476,31.08854 0.0312,40.34375 -15.09951,-1.05331 -27.2545,-0.42947 -38.46875,1.8125 -0.0198,0.004 -0.0427,-0.004 -0.0625,0 -15.15045,1.62631 -33.39334,7.66916 -53.5,11.09375 l -0.0312,0 0,0.0312 c -17.95688,3.46996 -37.42231,3.95175 -55.875,0.75 l -0.0312,0 c -11.07301,-1.55256 -22.19091,-6.67675 -33.375,-11.46875 l 4.40625,-82.8125 0.0312,-0.4375 -0.46875,-0.0625 c -18.61982,-2.33346 -36.73394,-4.93486 -55.28135,-13.78115 l -0.0312,0 c -17.62622,-7.26382 -32.42341,-16.97931 -39.625,-33.5625 -0.003,-0.009 0.003,-0.0219 0,-0.0312 -5.68065,-15.36013 -4.4435,-32.40411 8.75,-54.21875 7.47149,-12.1251 20.2465,-26.50295 36,-35.5625 13.30404,-7.95392 25.21324,-11.57608 35.5625,-10.53125 l 0.5625,0.0625 -0.0312,-0.5625 c -0.48059,-15.180893 2.39223,-27.091248 8.40625,-36.687507 6.00752,-9.585875 15.17216,-16.885832 27.40625,-22.8125 11.54645,-4.341596 22.71559,-5.813889 33.75,-5.53125 z"
       id="path3766"
       inkscape:connector-curvature="0" />
    <path
       style="fill:none;stroke:#ffa500;stroke-width:1px;stroke-linecap:butt;stroke-linejoin:miter;stroke-opacity:1"
       d="m 259.0774,139.86744 c -19.26309,-21.64505 -21.58682,-37.7664 -19.10714,-52.321433 2.90246,-13.589858 9.5625,-26.954609 33.21428,-35.357141 18.15003,-6.017159 41.01899,-3.383653 69.64286,8.214286 31.56754,16.00973 42.70195,38.550215 43.39286,67.678578 5.99464,-25.4588 22.43142,-42.490603 55.53571,-46.071435 15.98808,-0.211715 29.5355,0.931332 41.78572,21.607145 2.90316,7.89486 10.08835,25.87999 -0.89286,51.60715 -9.4522,23.68215 -25.92098,41.00496 -45.35714,55.17857 -9.04849,6.65087 -17.88486,12.31191 -26.42857,16.60714 -6.40469,-1.8327 -12.6916,-2.72327 -18.92858,-3.21428 0.39913,-23.04449 2.45179,-45.26221 10.53572,-64.46429 -9.74068,16.9201 -18.89865,34.94045 -21.96429,64.46429 -11.85263,0.30937 -23.91755,1.29807 -36.60714,4.28571 -3.50691,-17.47319 -7.81186,-35.42521 -12.14286,-53.39286 0.75618,18.61332 1.66821,37.3825 1.78572,55.35715 -18.81004,5.22643 -37.41117,9.14714 -55.89286,12.32143 -2.31476,-17.08164 -9.53898,-28.10828 -16.78572,-39.10715 3.90768,8.5592 7.87924,16.6553 9.82143,39.46429 -25.36224,4.20521 -47.34187,-1.04624 -69.72579,-7.76151 -17.55616,-5.24886 -33.49222,-14.71092 -43.66706,-31.70278 -7.74606,-18.59197 -1.79375,-33.01486 5.71428,-46.96428 7.78775,-13.27345 18.55339,-25.41735 36.07143,-35 9.83473,-4.89564 18.75613,-8.51255 27.5,-5 14.30906,6.95998 22.41263,15.52173 32.5,23.57142 z"
       id="path3772"
       inkscape:connector-curvature="0"
       sodipodi:nodetypes="ccccccccccccccccccccccccc" />
    <path
       style="fill:none;stroke:#ffa500;stroke-width:1px;stroke-linecap:butt;stroke-linejoin:miter;stroke-opacity:1"
       d="m 250.86311,249.86745 -4.28571,78.57142 c 10.26669,4.61848 21.25937,8.55147 33.66072,9.37501 17.0108,1.82852 41.39287,-0.47535 60.26785,-5.62501 17.94145,-4.93685 34.24392,-8.68171 46.96429,-9.82142 8.98809,-0.89286 17.14285,-0.59524 24.46428,0.89285 l -2.32142,-41.96428 -5.35715,-40.35715 c -14.96386,-5.31241 -27.95171,-3.96191 -40.98214,-3.21428 -18.69048,1.60658 -42.1131,5.53626 -54.01786,7.94642 -12.78355,1.94657 -25.2872,3.72893 -33.57143,4.01786 -8.51932,0.55055 -17.00262,1.02905 -24.82143,0.17858 z"
       id="path3774"
       inkscape:connector-curvature="0"
       sodipodi:nodetypes="cccccccccccc" />
    <path
       style="fill:#ffa500;fill-opacity:1;stroke:none"
       d="m 286.95827,347.35031 c -16.13396,-0.79542 -26.50202,-3.25062 -43.48621,-10.29775 l -6.86819,-2.84977 0.18322,-2.37339 c 0.10078,-1.30537 1.10319,-19.96579 2.22759,-41.46762 1.53116,-29.27998 1.89773,-39.18485 1.46021,-39.45525 -0.32129,-0.19857 -1.98321,-0.50726 -3.69317,-0.68599 -12.03099,-1.25748 -28.44212,-4.65045 -38.21179,-7.9002 -6.87827,-2.28797 -22.35893,-9.18821 -27.71697,-12.35437 -14.32991,-8.4678 -23.25082,-18.99656 -26.68082,-31.48962 -1.14756,-4.17974 -1.3444,-5.90779 -1.36196,-11.95693 -0.03,-10.32539 1.75705,-17.48658 7.09276,-28.42304 9.85546,-20.20051 26.32413,-36.92071 46.56098,-47.27211 9.50725,-4.86307 18.40993,-7.37785 26.14786,-7.38608 l 3.58627,-0.004 0.34969,-6.623763 c 0.92536,-17.528335 5.43668,-29.027763 15.36847,-39.174492 10.17241,-10.392554 23.73517,-16.818971 39.80595,-18.861172 14.15636,-1.798927 36.03123,0.62405 50.94552,5.642997 17.51582,5.894412 31.20159,13.751193 41.2154,23.661088 7.12829,7.054315 11.27863,12.89761 14.5589,20.497559 0.82933,1.92146 1.75353,3.43392 2.05377,3.36102 0.30024,-0.0729 1.95795,-1.23327 3.68379,-2.57859 12.15354,-9.47391 26.01962,-16.347704 37.23584,-18.45883 12.1826,-2.29302 25.0855,-0.899335 37.54148,4.054978 7.22889,2.875262 11.18203,5.455906 16.52157,10.785412 5.53007,5.51968 8.29896,10.24403 11.30073,19.281633 5.23018,15.74675 4.92718,29.36197 -1.08869,48.91979 -2.85866,9.29363 -10.6413,21.72647 -22.13153,35.35534 -4.34425,5.15283 -15.99499,16.69825 -21.9458,21.74741 -8.05401,6.83368 -24.3976,17.0514 -34.34519,21.47197 l -4.79822,2.13227 0.13137,1.94664 c 0.0723,1.07066 1.19508,13.53815 2.49515,27.70554 2.34434,25.54731 2.36401,25.92898 2.394,46.46701 l 0.0303,20.70813 -7.07107,-0.1437 c -17.377,-0.35314 -34.80839,2.06685 -62.37692,8.65973 -25.89607,6.19293 -42.99305,8.25135 -61.11423,7.35797 l -2e-5,0 z m 16.16245,-8.57435 c 15.53655,-0.97753 24.86937,-2.58766 45.03198,-7.76904 24.90575,-6.40028 39.83208,-8.73629 52.1952,-8.1687 3.88909,0.17855 8.18837,0.54753 9.55396,0.81996 1.36559,0.27242 2.56125,0.41697 2.65701,0.3212 0.0958,-0.0958 -0.37661,-9.92599 -1.04973,-21.84494 -1.06963,-18.93983 -1.56129,-24.20039 -3.90138,-41.74315 l -2.67752,-20.07233 -2.79625,-0.82477 c -9.14809,-2.69829 -16.24114,-3.46479 -28.12955,-3.03974 -14.10417,0.50426 -36.21279,3.20815 -56.42545,6.90085 -22.69519,4.14624 -37.5537,5.71717 -54.48411,5.76039 -11.20682,0.0286 -13.00457,0.13791 -13.00652,0.7908 -0.001,0.41669 -0.90989,17.23573 -2.01922,37.37565 -1.10933,20.13991 -2.0181,37.78312 -2.0195,39.20713 l -0.003,2.5891 4.9245,2.02092 c 9.8561,4.04477 18.11705,6.26776 26.64277,7.16946 10.44949,1.10516 14.66901,1.18907 25.50635,0.50721 l -10e-6,0 z M 264.06703,244.3444 c 2.17299,-0.28123 4.71755,-0.63771 5.65459,-0.79218 l 1.7037,-0.28083 -0.35277,-4.13232 c -0.49082,-5.74937 -2.08117,-14.85962 -3.57812,-20.49698 -0.69341,-2.61135 -1.165,-4.84366 -1.04797,-4.96068 0.11702,-0.11702 1.58073,2.58774 3.25268,6.01059 3.35122,6.86072 5.25057,12.44495 6.52399,19.18114 0.7584,4.01177 0.93716,4.41362 1.87246,4.20915 0.5687,-0.12433 3.64777,-0.69787 6.84238,-1.27452 11.44608,-2.06612 25.70439,-5.15528 37.31929,-8.08549 6.49712,-1.63908 11.87391,-3.0434 11.94844,-3.12069 0.15453,-0.16028 -0.57784,-29.3805 -1.00359,-40.04156 l -0.28238,-7.07107 2.00056,8.08122 c 1.10032,4.44468 3.40482,14.55883 5.12112,22.4759 1.71631,7.91707 3.20383,14.49056 3.30562,14.60776 0.10178,0.1172 1.71805,-0.0755 3.59169,-0.42823 8.83907,-1.66398 12.03787,-2.13317 19.27138,-2.82668 4.28095,-0.41044 9.40681,-0.74625 11.39081,-0.74625 l 3.60727,0 0.64537,-5.17703 c 1.41485,-11.34975 4.46583,-23.53565 8.37569,-33.45323 2.68602,-6.81325 6.78045,-15.63647 7.10536,-15.31156 0.13141,0.13141 -0.32758,2.52854 -1.01998,5.32695 -2.46444,9.96031 -4.03189,22.03077 -4.54215,34.97781 -0.15874,4.02798 -0.39871,8.70297 -0.53325,10.38886 l -0.24462,3.06525 5.43426,0.62515 c 2.98885,0.34383 7.5146,1.09996 10.05724,1.68029 l 4.62296,1.05514 5.22602,-2.90436 c 19.90976,-11.06481 39.68201,-27.30262 51.07147,-41.94206 7.04273,-9.05238 14.60415,-22.86663 17.96992,-32.82996 4.77926,-14.14751 4.95192,-28.18158 0.51736,-42.05206 -2.49052,-7.78991 -9.28611,-16.603243 -16.20487,-21.016423 -8.57939,-5.472423 -23.35581,-7.252488 -36.76364,-4.42879 -23.18608,4.883 -37.63171,16.73883 -45.0094,36.940163 l -1.19898,3.28299 -0.37757,-3.78807 c -2.22756,-22.348343 -12.99945,-40.147446 -31.92396,-52.750077 -7.32685,-4.879254 -13.11689,-7.621269 -22.97293,-10.879378 -13.42525,-4.437987 -23.10349,-6.378383 -34.47142,-6.911202 -11.15366,-0.522776 -19.84849,1.028142 -29.63958,5.286887 -14.79103,6.433514 -22.80027,15.179222 -27.14946,29.645887 -1.23267,4.10024 -1.36879,5.33758 -1.38905,12.6269 -0.0188,6.753763 0.15735,8.746993 1.07212,12.134173 1.95005,7.22061 4.75008,13.21102 9.54274,20.4159 1.1911,1.7906 2.06687,3.35441 1.94616,3.47512 -0.12071,0.12071 -1.53461,-0.91218 -3.14199,-2.29531 -6.90657,-5.94301 -16.6748,-12.36081 -21.73914,-14.28278 -6.61084,-2.50888 -13.00936,-1.6532 -23.60978,3.15733 -22.42342,10.17588 -40.948,31.26065 -48.03373,54.67225 -1.22988,4.06356 -1.38046,5.376 -1.41977,12.37437 -0.0382,6.79621 0.11319,8.37821 1.14775,11.99547 1.97069,6.89038 7.05009,14.12782 14.79726,21.08404 8.64008,7.75797 18.34583,12.87514 32.63593,17.20667 12.57657,3.81213 26.12106,6.84286 35.88166,8.02892 6.6598,0.80928 20.88621,0.95454 26.19485,0.26749 l 0,0 z"
       id="path3797"
       inkscape:connector-curvature="0" />
    <path
       style="fill:#ffa500;fill-opacity:1;stroke:none"
       d="M 324.625 365.28125 C 220.08046 365.28125 135.34375 383.30549 135.34375 405.53125 C 135.34375 427.75701 220.08046 445.75 324.625 445.75 C 429.16954 445.75 513.9375 427.75701 513.9375 405.53125 C 513.9375 383.30549 429.16954 365.28125 324.625 365.28125 z M 326.125 376.625 C 402.31708 376.625 464.09375 389.73936 464.09375 405.9375 C 464.09375 422.13564 402.31708 435.28125 326.125 435.28125 C 249.93292 435.28125 188.15625 422.13564 188.15625 405.9375 C 188.15625 389.73936 249.93292 376.625 326.125 376.625 z "
       id="path3801" />
    <path
       style="fill:#ffa500;fill-opacity:1;stroke:none"
       d="m 177.84722,450.65684 76.64312,31.35194 -9.42333,1.84424 -78.52778,-29.24425 -6.91045,3.95192 67.84801,31.87887 -5.02578,4.47885 -77.89956,-31.87887 -8.79511,4.47885 87.32289,42.15388 c 10.05544,-1.87919 19.11937,-4.39528 34.55221,-1.25145 10.94687,2.37877 100.03162,36.74459 115.26716,43.32523 14.48366,5.92028 94.4934,39.01635 116.28573,50.78868 5.98074,2.77838 17.35421,3.30557 25.12888,-0.59279 6.96156,-3.36639 7.24524,-8.16999 0.31411,-10.50554 -20.90065,-7.11392 -108.49237,-41.30236 -125.82701,-48.25764 -22.51385,-8.59089 -101.82556,-44.30896 -105.41033,-48.76619 -4.04075,-4.80635 0.0906,-9.24815 4.57232,-12.15248 l -100.83798,-36.60708 -10.66129,4.37795 z"
       id="path3832"
       inkscape:connector-curvature="0"
       sodipodi:nodetypes="ccccccccccccccccccccc" />
    <path
       style="fill:#ffa500;fill-opacity:1;stroke:none"
       d="m 516.93998,452.81786 -190.2554,82.60897 c -2.81091,-0.86964 -5.18291,-1.4065 -6.23946,-0.94608 l -27.7655,14.4615 c -26.0169,12.24199 -106.24569,48.01967 -129.78636,57.93735 -5.09556,1.68999 -15.80659,1.23657 -23.70988,-2.97338 -4.86408,-2.13474 -3.58508,-7.84417 0.77991,-9.83247 5.35105,-2.55054 81.73072,-33.10579 103.88489,-41.85163 11.38001,-4.66151 21.68068,-8.96789 28.58462,-11.85594 18.24682,-7.16484 27.32674,-10.84709 29.13802,-13.25134 -0.24811,-4.06438 -3.3656,-6.62216 -8.57924,-8.17683 10.47323,-8.29022 31.03575,-19.84424 50.93956,-28.19123 14.11935,-5.9933 66.39193,-27.74502 101.92245,-33.4372 16.4583,-2.88719 84.91065,-10.49421 71.08639,-4.49172 z"
       id="path3834"
       inkscape:connector-curvature="0"
       sodipodi:nodetypes="sccccccccccccs" />
  </g>
</svg>
